<?xml version="1.0" encoding="UTF-8"?>
<svg xmlns="http://www.w3.org/2000/svg" xmlns:xlink="http://www.w3.org/1999/xlink" width="480" zoomAndPan="magnify" viewBox="0 0 360 269.999989" height="360" preserveAspectRatio="xMidYMid meet" version="1.0">
  <path fill="#ffffff" d="M 75.703125 141.464844 C 72.613281 133.191406 69.519531 124.917969 66.441406 116.636719 C 66.328125 116.328125 66.167969 116.242188 65.855469 116.246094 C 64.574219 116.265625 63.285156 116.273438 62.003906 116.246094 C 61.628906 116.246094 61.464844 116.347656 61.328125 116.710938 C 58.347656 124.746094 55.351562 132.765625 52.347656 140.789062 C 52.230469 141.097656 52.078125 141.382812 51.953125 141.683594 L 51.953125 141.886719 C 53.570312 141.886719 55.183594 141.867188 56.804688 141.886719 C 57.140625 141.886719 57.292969 141.796875 57.402344 141.464844 C 57.867188 140.046875 58.371094 138.636719 58.835938 137.207031 C 58.945312 136.875 59.074219 136.730469 59.457031 136.738281 C 62.425781 136.753906 65.390625 136.753906 68.355469 136.738281 C 68.699219 136.738281 68.851562 136.839844 68.960938 137.164062 C 69.414062 138.554688 69.910156 139.929688 70.355469 141.328125 C 70.492188 141.734375 70.65625 141.898438 71.113281 141.886719 C 72.511719 141.855469 73.914062 141.875 75.316406 141.875 C 75.476562 141.875 75.628906 141.863281 75.820312 141.847656 C 75.769531 141.691406 75.742188 141.582031 75.703125 141.472656 Z M 60.476562 132.375 C 61.609375 129.027344 62.738281 125.71875 63.90625 122.296875 C 65.070312 125.71875 66.195312 129.023438 67.328125 132.375 Z M 60.476562 132.375 " fill-opacity="1" fill-rule="nonzero"></path>
  <path fill="#ffffff" d="M 88.023438 154.976562 C 87.957031 155.199219 87.914062 155.371094 87.855469 155.535156 C 85.078125 163.535156 82.296875 171.539062 79.53125 179.542969 C 79.394531 179.933594 79.238281 180.148438 78.804688 180.066406 C 78.675781 180.042969 78.535156 180.066406 78.402344 180.066406 C 77.527344 180.066406 76.953125 179.644531 76.6875 178.796875 C 74.519531 172.015625 72.351562 165.226562 70.179688 158.441406 C 70.140625 158.316406 70.09375 158.195312 70.011719 157.957031 C 69.710938 158.902344 69.4375 159.75 69.175781 160.589844 C 67.195312 166.898438 65.207031 173.195312 63.242188 179.507812 C 63.101562 179.945312 62.921875 180.132812 62.453125 180.078125 C 61.910156 180.023438 61.234375 180.214844 60.851562 179.957031 C 60.496094 179.710938 60.4375 179.015625 60.265625 178.519531 C 57.5625 170.84375 54.851562 163.167969 52.148438 155.492188 C 52.097656 155.359375 52.027344 155.222656 51.964844 155.089844 L 51.964844 154.988281 C 52.550781 154.988281 53.132812 155.011719 53.71875 154.96875 C 54.136719 154.9375 54.316406 155.089844 54.449219 155.492188 C 56.617188 161.683594 58.792969 167.867188 60.972656 174.050781 C 61.277344 174.921875 61.589844 175.789062 61.949219 176.796875 C 64.261719 169.441406 66.53125 162.222656 68.808594 154.976562 C 69.558594 154.976562 70.292969 154.957031 71.019531 154.996094 C 71.152344 155 71.332031 155.238281 71.382812 155.402344 C 72.421875 158.617188 73.449219 161.835938 74.476562 165.054688 C 75.671875 168.816406 76.867188 172.570312 78.070312 176.324219 C 78.109375 176.453125 78.152344 176.574219 78.222656 176.785156 C 78.320312 176.554688 78.394531 176.40625 78.453125 176.25 C 80.832031 169.324219 83.214844 162.394531 85.578125 155.464844 C 85.707031 155.089844 85.855469 154.925781 86.269531 154.957031 C 86.828125 155 87.398438 154.960938 88.035156 154.960938 Z M 88.023438 154.976562 " fill-opacity="1" fill-rule="nonzero"></path>
  <path fill="#ffffff" d="M 279.113281 65.769531 C 278.996094 66.058594 278.921875 66.230469 278.855469 66.394531 C 272.425781 83.613281 266 100.832031 259.558594 118.042969 C 259.402344 118.476562 259.457031 118.664062 259.878906 118.875 C 275.777344 126.945312 291.671875 135.023438 307.570312 143.105469 C 307.699219 143.167969 307.832031 143.214844 308.042969 143.300781 C 298.390625 117.4375 288.769531 91.660156 279.113281 65.761719 Z M 295.453125 129.628906 C 286.304688 124.980469 277.160156 120.332031 268.011719 115.707031 C 267.613281 115.5 267.554688 115.316406 267.707031 114.910156 C 271.429688 104.96875 275.140625 95.03125 278.851562 85.09375 C 278.914062 84.921875 278.992188 84.761719 279.0625 84.59375 C 279.105469 84.59375 279.148438 84.59375 279.1875 84.59375 C 284.8125 99.664062 290.441406 114.734375 296.113281 129.945312 C 295.800781 129.800781 295.625 129.722656 295.453125 129.632812 Z M 295.453125 129.628906 " fill-opacity="1" fill-rule="nonzero"></path>
  <path fill="#ffffff" d="M 157.171875 116.285156 L 157.171875 141.8125 C 157.105469 141.828125 157.050781 141.863281 156.984375 141.863281 C 155.417969 141.863281 153.851562 141.882812 152.28125 141.847656 C 152.097656 141.847656 151.855469 141.632812 151.734375 141.453125 C 149.617188 138.296875 147.519531 135.128906 145.414062 131.96875 C 143.957031 129.773438 142.503906 127.582031 141.042969 125.394531 C 140.941406 125.25 140.839844 125.101562 140.632812 124.972656 L 140.632812 141.84375 L 135.636719 141.84375 L 135.636719 116.253906 L 136.503906 116.253906 C 137.722656 116.253906 138.9375 116.265625 140.15625 116.246094 C 140.511719 116.246094 140.722656 116.355469 140.921875 116.65625 C 144.503906 122.117188 148.09375 127.570312 151.6875 133.019531 C 151.789062 133.179688 151.898438 133.339844 152.007812 133.496094 C 152.046875 133.480469 152.089844 133.464844 152.128906 133.445312 L 152.128906 116.277344 L 157.164062 116.277344 Z M 157.171875 116.285156 " fill-opacity="1" fill-rule="nonzero"></path>
  <path fill="#ffffff" d="M 128 141.328125 C 124.933594 133.109375 121.859375 124.898438 118.804688 116.679688 C 118.679688 116.328125 118.5 116.242188 118.15625 116.246094 C 116.886719 116.265625 115.617188 116.273438 114.355469 116.246094 C 113.988281 116.246094 113.816406 116.34375 113.679688 116.707031 C 110.632812 124.910156 107.566406 133.109375 104.511719 141.308594 C 104.449219 141.472656 104.40625 141.652344 104.335938 141.863281 C 106.050781 141.863281 107.714844 141.867188 109.382812 141.84375 C 109.503906 141.84375 109.675781 141.621094 109.726562 141.464844 C 110.226562 140.058594 110.730469 138.640625 111.183594 137.214844 C 111.308594 136.820312 111.496094 136.722656 111.890625 136.722656 C 114.808594 136.738281 117.722656 136.738281 120.640625 136.722656 C 121.019531 136.722656 121.195312 136.824219 121.316406 137.195312 C 121.785156 138.636719 122.273438 140.070312 122.785156 141.492188 C 122.839844 141.644531 123.058594 141.847656 123.207031 141.847656 C 124.835938 141.875 126.46875 141.867188 128.175781 141.867188 C 128.109375 141.640625 128.070312 141.480469 128.003906 141.328125 Z M 112.820312 132.363281 C 113.953125 129.035156 115.078125 125.734375 116.242188 122.304688 C 117.410156 125.738281 118.527344 129.027344 119.667969 132.363281 Z M 112.820312 132.363281 " fill-opacity="1" fill-rule="nonzero"></path>
  <path fill="#ffffff" d="M 101.828125 116.246094 C 101.757812 116.464844 101.707031 116.617188 101.652344 116.761719 C 98.585938 124.980469 95.519531 133.191406 92.464844 141.410156 C 92.332031 141.761719 92.164062 141.882812 91.78125 141.875 C 90.617188 141.847656 89.449219 141.855469 88.28125 141.875 C 87.988281 141.875 87.847656 141.792969 87.742188 141.503906 C 84.65625 133.210938 81.558594 124.917969 78.464844 116.625 C 78.425781 116.519531 78.40625 116.40625 78.363281 116.246094 C 79.703125 116.246094 80.996094 116.246094 82.296875 116.246094 C 82.792969 116.246094 83.417969 116.101562 83.75 116.34375 C 84.082031 116.585938 84.132812 117.222656 84.292969 117.695312 C 86.152344 123.164062 88.003906 128.628906 89.863281 134.089844 C 89.914062 134.242188 89.972656 134.390625 90.074219 134.671875 C 90.175781 134.398438 90.234375 134.230469 90.289062 134.066406 C 92.253906 128.28125 94.222656 122.507812 96.167969 116.71875 C 96.300781 116.324219 96.476562 116.222656 96.871094 116.226562 C 98.335938 116.253906 99.800781 116.234375 101.269531 116.234375 L 101.828125 116.234375 Z M 101.828125 116.246094 " fill-opacity="1" fill-rule="nonzero"></path>
  <path fill="#ffffff" d="M 184.5 116.277344 L 184.5 120.765625 L 177.445312 120.765625 L 177.445312 141.835938 L 172.367188 141.835938 L 172.367188 120.78125 L 165.351562 120.78125 L 165.351562 116.277344 Z M 184.5 116.277344 " fill-opacity="1" fill-rule="nonzero"></path>
  <path fill="#ffffff" d="M 218.484375 155.128906 C 211.589844 155.101562 205.671875 160.710938 205.75 168.195312 C 205.820312 174.898438 211.363281 180.425781 218.136719 180.511719 C 225.25 180.609375 231.128906 175.023438 231.160156 167.832031 C 231.183594 160.828125 225.492188 155.132812 218.480469 155.128906 Z M 218.957031 178.484375 C 212.882812 178.621094 208.074219 174.105469 207.941406 168.152344 C 207.8125 162.351562 212.441406 157.511719 218.238281 157.390625 C 224.191406 157.269531 228.910156 161.90625 229.050781 168.003906 C 229.175781 173.515625 224.503906 178.363281 218.957031 178.484375 Z M 218.957031 178.484375 " fill-opacity="1" fill-rule="nonzero"></path>
  <path fill="#ffffff" d="M 193.191406 116.277344 L 198.238281 116.277344 L 198.238281 141.828125 L 193.191406 141.828125 Z M 193.191406 116.277344 " fill-opacity="1" fill-rule="nonzero"></path>
  <path fill="#ffffff" d="M 257.195312 179.683594 C 254.167969 171.5625 251.132812 163.449219 248.105469 155.324219 C 248.007812 155.070312 247.894531 154.960938 247.605469 154.96875 C 247.039062 154.996094 246.472656 155 245.90625 154.96875 C 245.542969 154.945312 245.394531 155.078125 245.265625 155.410156 C 242.613281 162.535156 239.957031 169.65625 237.292969 176.777344 C 236.890625 177.847656 236.496094 178.917969 236.066406 180.0625 C 236.699219 180.0625 237.261719 180.042969 237.816406 180.066406 C 238.140625 180.085938 238.28125 179.953125 238.386719 179.660156 C 239.097656 177.742188 239.828125 175.828125 240.523438 173.902344 C 240.644531 173.566406 240.8125 173.457031 241.167969 173.457031 C 244.832031 173.46875 248.503906 173.476562 252.171875 173.457031 C 252.605469 173.457031 252.769531 173.601562 252.90625 173.984375 C 253.585938 175.878906 254.300781 177.765625 255.015625 179.648438 C 255.070312 179.804688 255.238281 180.027344 255.371094 180.035156 C 255.996094 180.074219 256.628906 180.054688 257.304688 180.054688 C 257.253906 179.890625 257.226562 179.78125 257.1875 179.671875 Z M 241.449219 171.5 C 243.195312 166.820312 244.921875 162.179688 246.707031 157.386719 C 248.488281 162.167969 250.214844 166.808594 251.96875 171.5 Z M 241.449219 171.5 " fill-opacity="1" fill-rule="nonzero"></path>
  <path fill="#ffffff" d="M 97.011719 156.90625 L 97.011719 166.488281 L 108.746094 166.488281 L 108.746094 168.425781 L 97.011719 168.425781 L 97.011719 178.085938 L 110.976562 178.085938 L 110.976562 179.996094 L 95.003906 179.996094 L 95.003906 155.007812 L 110.984375 155.007812 L 110.984375 156.90625 Z M 97.011719 156.90625 " fill-opacity="1" fill-rule="nonzero"></path>
  <path fill="#ffffff" d="M 199.894531 175.707031 C 199.339844 176.285156 198.839844 176.886719 198.265625 177.402344 C 195.726562 179.679688 192.71875 180.558594 189.339844 180.519531 C 182.703125 180.445312 177.347656 175.089844 177.355469 168.4375 C 177.355469 165.902344 177.660156 163.414062 178.820312 161.109375 C 180.757812 157.265625 183.933594 155.210938 188.152344 154.6875 C 191.441406 154.28125 194.484375 154.949219 197.210938 156.875 C 198.214844 157.582031 199.085938 158.417969 199.859375 159.4375 C 199.328125 159.871094 198.84375 160.273438 198.316406 160.707031 C 198.179688 160.554688 198.054688 160.40625 197.933594 160.261719 C 194.132812 155.796875 186.9375 155.308594 182.785156 159.238281 C 180.925781 161.007812 179.980469 163.230469 179.675781 165.730469 C 179.417969 167.820312 179.382812 169.910156 180.148438 171.945312 C 181.636719 175.890625 185.4375 178.503906 189.65625 178.503906 C 193.125 178.503906 195.980469 177.238281 198.1875 174.546875 C 198.21875 174.507812 198.257812 174.476562 198.328125 174.417969 C 198.820312 174.828125 199.316406 175.234375 199.902344 175.714844 Z M 199.894531 175.707031 " fill-opacity="1" fill-rule="nonzero"></path>
  <path fill="#ffffff" d="M 132.402344 178.886719 C 130.566406 180.113281 128.535156 180.566406 126.375 180.46875 C 123.242188 180.328125 120.566406 179.144531 118.320312 176.949219 C 118.054688 176.6875 118.003906 176.472656 118.148438 176.128906 C 118.390625 175.585938 118.578125 175.023438 118.8125 174.398438 C 119.773438 175.664062 120.871094 176.648438 122.210938 177.332031 C 124.785156 178.632812 127.449219 178.976562 130.171875 177.855469 C 132.488281 176.898438 133.496094 174.726562 132.804688 172.386719 C 132.492188 171.328125 131.84375 170.484375 130.886719 169.988281 C 129.535156 169.289062 128.125 168.675781 126.71875 168.089844 C 124.972656 167.363281 123.160156 166.761719 121.578125 165.667969 C 119.820312 164.449219 118.824219 162.824219 119.011719 160.628906 C 119.257812 157.671875 121.785156 154.960938 124.746094 154.59375 C 128.191406 154.160156 131.320312 155.058594 134.09375 157.148438 C 134.207031 157.230469 134.308594 157.46875 134.273438 157.582031 C 134.082031 158.183594 133.839844 158.769531 133.589844 159.425781 C 132.15625 158.136719 130.582031 157.257812 128.785156 156.824219 C 127.515625 156.519531 126.226562 156.300781 124.925781 156.570312 C 122.6875 157.023438 121.019531 159.171875 121.195312 161.34375 C 121.292969 162.464844 121.835938 163.382812 122.773438 163.9375 C 123.882812 164.59375 125.066406 165.136719 126.253906 165.652344 C 127.710938 166.296875 129.210938 166.851562 130.683594 167.484375 C 131.242188 167.726562 131.773438 168.058594 132.300781 168.363281 C 136.203125 170.644531 135.992188 176.460938 132.398438 178.863281 Z M 132.402344 178.886719 " fill-opacity="1" fill-rule="nonzero"></path>
  <path fill="#ffffff" d="M 277.921875 178.78125 C 276.089844 180.117188 273.992188 180.566406 271.773438 180.476562 C 268.632812 180.339844 265.929688 179.15625 263.679688 176.9375 C 263.429688 176.695312 263.359375 176.484375 263.507812 176.152344 C 263.742188 175.609375 263.933594 175.042969 264.144531 174.5 C 264.820312 175.144531 265.425781 175.847656 266.144531 176.390625 C 268.808594 178.410156 271.78125 179.046875 275.007812 178.070312 C 276.542969 177.605469 277.730469 176.648438 278.207031 175.039062 C 278.792969 173.085938 278.085938 171.078125 276.273438 170.019531 C 274.949219 169.242188 273.476562 168.726562 272.066406 168.074219 C 270.4375 167.328125 268.722656 166.71875 267.195312 165.792969 C 263.472656 163.550781 263.765625 159.640625 265.960938 156.996094 C 267.355469 155.308594 269.207031 154.476562 271.398438 154.484375 C 274.28125 154.492188 276.917969 155.28125 279.265625 156.976562 C 279.621094 157.230469 279.792969 157.449219 279.550781 157.902344 C 279.324219 158.339844 279.1875 158.824219 279.011719 159.296875 C 279.003906 159.324219 278.972656 159.34375 278.921875 159.386719 C 278.71875 159.226562 278.519531 159.054688 278.316406 158.894531 C 276.230469 157.25 273.851562 156.46875 271.21875 156.480469 C 268.804688 156.492188 266.710938 158.417969 266.546875 160.828125 C 266.457031 162.089844 266.960938 163.207031 268.039062 163.867188 C 269.179688 164.570312 270.417969 165.128906 271.640625 165.671875 C 273.15625 166.347656 274.726562 166.914062 276.242188 167.597656 C 276.964844 167.921875 277.671875 168.34375 278.289062 168.828125 C 281.457031 171.3125 281.261719 176.324219 277.914062 178.765625 Z M 277.921875 178.78125 " fill-opacity="1" fill-rule="nonzero"></path>
  <path fill="#ffffff" d="M 159.886719 155.019531 L 159.886719 156.882812 L 151.777344 156.882812 L 151.777344 180.035156 L 149.730469 180.035156 L 149.730469 156.917969 L 141.757812 156.917969 L 141.757812 155.019531 Z M 159.886719 155.019531 " fill-opacity="1" fill-rule="nonzero"></path>
  <path fill="#ffffff" d="M 305.242188 155.019531 L 305.242188 156.902344 L 297.152344 156.902344 L 297.152344 180.046875 L 295.125 180.046875 L 295.125 156.914062 L 287.144531 156.914062 L 287.144531 155.019531 Z M 305.242188 155.019531 " fill-opacity="1" fill-rule="nonzero"></path>
</svg>
