<?xml version="1.0" encoding="UTF-8"?>
<svg xmlns="http://www.w3.org/2000/svg" xmlns:xlink="http://www.w3.org/1999/xlink" width="480" zoomAndPan="magnify" viewBox="0 0 360 269.999989" height="360" preserveAspectRatio="xMidYMid meet" version="1.0">
  <path fill="#ffffff" d="M 231.148438 97.335938 C 221.738281 125.542969 212.335938 153.710938 202.941406 181.882812 C 202.902344 181.882812 202.859375 181.882812 202.820312 181.882812 C 195.3125 159.445312 187.890625 136.984375 180.308594 114.574219 C 180.265625 114.574219 180.226562 114.574219 180.183594 114.582031 C 180.140625 114.695312 180.097656 114.800781 180.0625 114.910156 C 174.777344 130.757812 169.492188 146.601562 164.210938 162.449219 C 162.089844 168.804688 159.964844 175.164062 157.847656 181.519531 C 157.78125 181.726562 157.726562 181.929688 157.671875 182.136719 L 157.601562 182.136719 C 156.390625 178.449219 155.203125 174.753906 153.976562 171.070312 C 145.867188 146.742188 137.757812 122.417969 129.648438 98.097656 C 129.566406 97.855469 129.5 97.597656 129.414062 97.3125 C 129.597656 97.300781 129.726562 97.292969 129.859375 97.292969 C 133.339844 97.292969 136.828125 97.292969 140.308594 97.28125 C 140.628906 97.28125 140.761719 97.378906 140.867188 97.679688 C 146.390625 114.28125 151.925781 130.886719 157.460938 147.488281 C 157.511719 147.628906 157.566406 147.765625 157.621094 147.90625 C 157.65625 147.90625 157.695312 147.90625 157.738281 147.90625 C 165.230469 125.429688 172.71875 102.960938 180.210938 80.488281 L 180.324219 80.476562 C 187.820312 102.945312 195.3125 125.414062 202.808594 147.878906 L 202.945312 147.898438 C 203.015625 147.753906 203.097656 147.613281 203.152344 147.460938 C 204.84375 142.394531 206.523438 137.328125 208.214844 132.265625 C 212.050781 120.761719 215.886719 109.253906 219.710938 97.75 C 219.816406 97.421875 219.976562 97.328125 220.316406 97.328125 C 223.777344 97.339844 227.234375 97.339844 230.695312 97.339844 L 231.171875 97.339844 Z M 231.148438 97.335938 " fill-opacity="1" fill-rule="nonzero"></path>
  <path fill="#ffffff" d="M 272.046875 135.742188 C 272.054688 135.058594 272.109375 134.367188 272.019531 133.695312 C 271.808594 132.085938 271.371094 130.527344 270.640625 129.082031 C 267.777344 123.375 263.136719 120.261719 256.773438 119.890625 C 253.730469 119.710938 250.671875 119.824219 247.617188 119.824219 C 242.628906 119.824219 237.632812 119.828125 232.640625 119.835938 L 231.738281 119.835938 C 231.726562 120.023438 231.71875 120.144531 231.71875 120.261719 C 231.71875 135.054688 231.71875 149.851562 231.710938 164.640625 C 231.710938 164.964844 231.792969 165.070312 232.128906 165.070312 C 235.429688 165.058594 238.734375 165.0625 242.039062 165.0625 C 242.164062 165.0625 242.292969 165.046875 242.449219 165.035156 L 242.449219 152.109375 C 242.578125 152.105469 242.675781 152.09375 242.769531 152.09375 C 247.136719 152.09375 251.507812 152.09375 255.878906 152.082031 C 256.164062 152.082031 256.238281 152.214844 256.308594 152.433594 C 257.667969 156.515625 259.039062 160.59375 260.390625 164.675781 C 260.496094 164.988281 260.636719 165.0625 260.949219 165.0625 C 264.429688 165.054688 267.917969 165.058594 271.398438 165.058594 L 271.835938 165.058594 C 271.78125 164.890625 271.746094 164.765625 271.703125 164.640625 C 269.941406 159.351562 268.171875 154.058594 266.402344 148.769531 C 266.324219 148.53125 266.324219 148.378906 266.539062 148.21875 C 266.738281 148.074219 266.910156 147.882812 267.097656 147.710938 C 269.582031 145.351562 271.167969 142.492188 271.875 139.140625 C 272.113281 138.011719 272.03125 136.875 272.046875 135.742188 Z M 256.835938 141.269531 C 256.40625 141.320312 255.976562 141.351562 255.546875 141.351562 C 251.300781 141.359375 247.050781 141.351562 242.800781 141.351562 L 242.421875 141.351562 L 242.421875 130.554688 L 246.367188 130.554688 C 249.542969 130.554688 252.710938 130.554688 255.882812 130.554688 C 258.75 130.554688 260.953125 132.464844 261.390625 135.300781 C 261.820312 138.09375 259.644531 140.945312 256.835938 141.269531 Z M 256.835938 141.269531 " fill-opacity="1" fill-rule="nonzero"></path>
  <path fill="#ffffff" d="M 131.875 156.199219 C 131.875 156.640625 131.75 156.992188 131.453125 157.332031 C 129.484375 159.640625 127.3125 161.71875 124.664062 163.246094 C 121.542969 165.046875 118.203125 166.15625 114.601562 166.480469 C 103.023438 167.539062 92.332031 160.203125 89.234375 149.011719 C 88.902344 147.808594 88.78125 146.542969 88.480469 145.332031 C 88.09375 143.789062 88.332031 142.234375 88.269531 140.6875 C 89.414062 132.296875 93.269531 125.664062 100.792969 121.417969 C 103.886719 119.671875 107.207031 118.707031 110.753906 118.484375 C 116.390625 118.132812 121.53125 119.550781 126.1875 122.742188 C 126.464844 122.933594 126.515625 123.09375 126.410156 123.414062 C 125.234375 126.890625 124.074219 130.367188 122.910156 133.847656 C 122.882812 133.925781 122.851562 134 122.792969 134.167969 C 122.21875 133.578125 121.726562 133.003906 121.160156 132.507812 C 118.308594 130.015625 114.976562 128.957031 111.210938 129.257812 C 105.214844 129.738281 100.210938 134.382812 99.253906 140.332031 C 98.152344 147.175781 102.394531 153.683594 109.125 155.375 C 113.378906 156.453125 117.257812 155.539062 120.726562 152.882812 C 120.9375 152.714844 121.152344 152.402344 121.164062 152.148438 C 121.207031 150.980469 121.179688 149.808594 121.179688 148.597656 L 112.484375 148.597656 C 112.472656 148.40625 112.457031 148.261719 112.457031 148.109375 C 112.457031 144.867188 112.457031 141.621094 112.457031 138.378906 C 112.457031 137.875 112.457031 137.875 112.972656 137.875 C 117.644531 137.875 122.3125 137.875 126.980469 137.875 C 128.453125 137.875 129.929688 137.886719 131.398438 137.871094 C 131.746094 137.867188 131.878906 137.988281 131.863281 138.320312 C 131.859375 138.425781 131.863281 138.535156 131.863281 138.644531 C 131.863281 144.5 131.863281 150.355469 131.871094 156.203125 Z M 131.875 156.199219 " fill-opacity="1" fill-rule="nonzero"></path>
</svg>
