<?xml version="1.0" encoding="UTF-8"?>
<svg xmlns="http://www.w3.org/2000/svg" xmlns:xlink="http://www.w3.org/1999/xlink" width="480" zoomAndPan="magnify" viewBox="0 0 360 269.999989" height="360" preserveAspectRatio="xMidYMid meet" version="1.0">
  <path fill="#ffffff" d="M 119.082031 123.46875 L 126.011719 123.46875 L 126.011719 135.199219 L 139.46875 135.199219 L 139.46875 123.46875 L 146.398438 123.46875 L 146.398438 154.917969 L 139.46875 154.917969 L 139.46875 141.320312 L 126.011719 141.320312 L 126.011719 154.917969 L 119.082031 154.917969 Z M 119.082031 123.46875 " fill-opacity="1" fill-rule="nonzero"></path>
  <path fill="#ffffff" d="M 170.53125 154.917969 L 164.136719 154.917969 L 164.136719 151.984375 L 164.046875 151.984375 C 163.78125 152.425781 163.484375 152.847656 163.128906 153.222656 C 162.742188 153.65625 162.28125 154.03125 161.78125 154.332031 C 161.210938 154.675781 160.59375 154.949219 159.957031 155.136719 C 159.238281 155.34375 158.488281 155.449219 157.738281 155.441406 C 156.328125 155.496094 154.925781 155.230469 153.628906 154.664062 C 152.625 154.191406 151.777344 153.449219 151.183594 152.511719 C 150.574219 151.519531 150.1875 150.417969 150.027344 149.269531 C 149.824219 147.933594 149.734375 146.578125 149.742188 145.226562 L 149.742188 133.324219 L 156.410156 133.324219 L 156.410156 143.898438 C 156.410156 144.523438 156.433594 145.167969 156.476562 145.835938 C 156.515625 146.464844 156.652344 147.085938 156.875 147.679688 C 157.3125 148.933594 158.554688 149.71875 159.875 149.59375 C 160.601562 149.621094 161.324219 149.464844 161.960938 149.128906 C 162.476562 148.835938 162.898438 148.40625 163.183594 147.890625 C 163.476562 147.34375 163.664062 146.75 163.738281 146.136719 C 163.828125 145.460938 163.875 144.777344 163.875 144.09375 L 163.875 133.339844 L 170.527344 133.339844 L 170.527344 154.933594 Z M 170.53125 154.917969 " fill-opacity="1" fill-rule="nonzero"></path>
  <path fill="#ffffff" d="M 176.292969 121.339844 L 182.960938 121.339844 L 182.960938 154.925781 L 176.292969 154.925781 Z M 176.292969 121.339844 " fill-opacity="1" fill-rule="nonzero"></path>
  <path fill="#ffffff" d="M 188.816406 121.339844 L 195.484375 121.339844 L 195.484375 154.925781 L 188.816406 154.925781 Z M 188.816406 121.339844 " fill-opacity="1" fill-rule="nonzero"></path>
  <path fill="#ffffff" d="M 214.601562 154.917969 L 211.160156 154.917969 L 211.160156 124.257812 L 199.84375 124.257812 L 199.84375 121.105469 L 225.929688 121.105469 L 225.929688 124.257812 L 214.609375 124.257812 L 214.609375 154.917969 Z M 214.601562 154.917969 " fill-opacity="1" fill-rule="nonzero"></path>
  <path fill="#ffffff" d="M 223.589844 139.542969 C 223.589844 138.550781 223.566406 137.554688 223.519531 136.535156 C 223.476562 135.515625 223.429688 134.195312 223.402344 132.574219 L 226.503906 132.574219 L 226.503906 136.738281 L 226.601562 136.738281 C 226.835938 136.113281 227.160156 135.523438 227.554688 134.996094 C 227.984375 134.425781 228.484375 133.917969 229.054688 133.496094 C 229.679688 133.03125 230.367188 132.671875 231.109375 132.425781 C 231.964844 132.140625 232.867188 132.003906 233.765625 132.019531 C 234.554688 132.003906 235.339844 132.101562 236.105469 132.304688 L 235.484375 135.410156 C 234.898438 135.222656 234.285156 135.148438 233.667969 135.167969 C 232.589844 135.140625 231.523438 135.378906 230.5625 135.867188 C 229.730469 136.300781 229.003906 136.910156 228.410156 137.636719 C 227.847656 138.328125 227.421875 139.113281 227.144531 139.953125 C 226.878906 140.726562 226.746094 141.53125 226.738281 142.339844 L 226.738281 154.949219 L 223.589844 154.949219 Z M 223.589844 139.542969 " fill-opacity="1" fill-rule="nonzero"></path>
  <path fill="#ffffff" d="M 251.046875 141.214844 L 251.046875 140.636719 C 251.046875 136.78125 249.132812 134.863281 245.316406 134.855469 C 242.789062 134.824219 240.34375 135.761719 238.492188 137.480469 L 236.578125 135.230469 C 239.152344 132.890625 242.570312 131.71875 246.035156 131.980469 C 247.09375 131.980469 248.152344 132.140625 249.164062 132.460938 C 250.125 132.753906 251.015625 133.257812 251.765625 133.917969 C 252.523438 134.601562 253.125 135.441406 253.535156 136.378906 C 254.007812 137.496094 254.234375 138.703125 254.203125 139.917969 L 254.203125 149.898438 C 254.203125 150.753906 254.242188 151.664062 254.324219 152.601562 C 254.40625 153.539062 254.488281 154.308594 254.585938 154.917969 L 251.527344 154.917969 C 251.421875 154.332031 251.351562 153.738281 251.308594 153.148438 C 251.261719 152.511719 251.242188 151.894531 251.242188 151.289062 L 251.144531 151.289062 C 250.371094 152.644531 249.238281 153.753906 247.875 154.511719 C 246.441406 155.203125 244.859375 155.539062 243.269531 155.488281 C 242.300781 155.488281 241.332031 155.351562 240.402344 155.082031 C 239.511719 154.828125 238.679688 154.40625 237.941406 153.84375 C 237.230469 153.289062 236.644531 152.59375 236.226562 151.789062 C 235.777344 150.914062 235.558594 149.929688 235.582031 148.949219 C 235.492188 147.394531 236 145.863281 237 144.671875 C 237.964844 143.613281 239.1875 142.820312 240.539062 142.355469 C 242 141.835938 243.53125 141.515625 245.074219 141.402344 C 246.6875 141.273438 248.15625 141.207031 249.5 141.214844 L 251.082031 141.214844 Z M 249.425781 143.792969 C 248.628906 143.792969 247.632812 143.832031 246.441406 143.914062 C 245.277344 143.988281 244.125 144.183594 243 144.492188 C 241.96875 144.761719 241.011719 145.242188 240.179688 145.910156 C 239.398438 146.554688 238.964844 147.523438 239.007812 148.535156 C 238.984375 149.195312 239.144531 149.847656 239.464844 150.425781 C 239.765625 150.941406 240.179688 151.386719 240.679688 151.714844 C 241.199219 152.050781 241.777344 152.292969 242.375 152.417969 C 243 152.5625 243.628906 152.636719 244.265625 152.636719 C 245.292969 152.660156 246.304688 152.464844 247.25 152.058594 C 248.894531 151.339844 250.136719 149.9375 250.640625 148.21875 C 250.917969 147.3125 251.054688 146.375 251.046875 145.421875 L 251.046875 143.792969 L 249.417969 143.792969 Z M 249.425781 143.792969 " fill-opacity="1" fill-rule="nonzero"></path>
  <path fill="#ffffff" d="M 262.324219 123.964844 C 262.347656 124.59375 262.085938 125.195312 261.621094 125.613281 C 260.75 126.476562 259.347656 126.476562 258.46875 125.613281 C 257.5625 124.761719 257.511719 123.335938 258.367188 122.425781 C 258.402344 122.390625 258.433594 122.351562 258.46875 122.324219 C 259.339844 121.460938 260.742188 121.460938 261.621094 122.324219 C 262.085938 122.742188 262.347656 123.34375 262.324219 123.972656 Z M 261.621094 154.917969 L 258.46875 154.917969 L 258.46875 132.566406 L 261.621094 132.566406 Z M 261.621094 154.917969 " fill-opacity="1" fill-rule="nonzero"></path>
  <path fill="#ffffff" d="M 269.824219 132.566406 C 269.886719 133.175781 269.929688 133.765625 269.945312 134.359375 C 269.960938 134.945312 269.96875 135.542969 269.96875 136.152344 L 270.066406 136.152344 C 270.425781 135.53125 270.875 134.96875 271.402344 134.480469 C 271.949219 133.96875 272.554688 133.527344 273.214844 133.167969 C 273.890625 132.800781 274.601562 132.515625 275.339844 132.3125 C 276.058594 132.109375 276.808594 132.003906 277.558594 132.003906 C 279.90625 131.808594 282.222656 132.636719 283.910156 134.269531 C 285.378906 136.09375 286.117188 138.402344 285.964844 140.742188 L 285.964844 154.925781 L 282.816406 154.925781 L 282.816406 142.558594 C 282.9375 140.570312 282.492188 138.589844 281.527344 136.851562 C 280.386719 135.394531 278.578125 134.644531 276.75 134.871094 C 276.296875 134.90625 275.855469 134.96875 275.414062 135.058594 C 274.574219 135.230469 273.777344 135.589844 273.09375 136.105469 C 272.1875 136.789062 271.445312 137.675781 270.929688 138.6875 C 270.214844 140.179688 269.886719 141.824219 269.976562 143.464844 L 269.976562 154.933594 L 266.824219 154.933594 L 266.824219 137.496094 C 266.824219 136.886719 266.804688 136.128906 266.757812 135.199219 C 266.714844 134.269531 266.660156 133.398438 266.578125 132.574219 L 269.847656 132.574219 Z M 269.824219 132.566406 " fill-opacity="1" fill-rule="nonzero"></path>
  <path fill="#ffffff" d="M 302.824219 137.871094 C 302.382812 136.984375 301.722656 136.234375 300.914062 135.671875 C 300.050781 135.109375 299.03125 134.824219 297.996094 134.855469 C 297.441406 134.855469 296.886719 134.921875 296.34375 135.042969 C 295.8125 135.164062 295.3125 135.363281 294.84375 135.640625 C 294.417969 135.898438 294.050781 136.25 293.773438 136.667969 C 293.488281 137.128906 293.34375 137.660156 293.367188 138.199219 C 293.300781 139.105469 293.714844 139.976562 294.464844 140.496094 C 295.484375 141.085938 296.601562 141.507812 297.753906 141.730469 L 300.957031 142.496094 C 302.441406 142.796875 303.792969 143.539062 304.851562 144.621094 C 305.886719 145.683594 306.449219 147.125 306.402344 148.609375 C 306.433594 149.699219 306.179688 150.777344 305.667969 151.738281 C 305.1875 152.59375 304.519531 153.335938 303.710938 153.890625 C 302.863281 154.46875 301.910156 154.878906 300.914062 155.105469 C 299.863281 155.359375 298.789062 155.488281 297.710938 155.488281 C 296.0625 155.503906 294.425781 155.164062 292.910156 154.511719 C 291.34375 153.785156 290.023438 152.613281 289.117188 151.144531 L 291.839844 149.285156 C 292.445312 150.273438 293.269531 151.105469 294.246094 151.722656 C 295.289062 152.34375 296.496094 152.660156 297.710938 152.628906 C 298.355469 152.628906 298.992188 152.554688 299.625 152.414062 C 300.222656 152.285156 300.792969 152.058594 301.316406 151.746094 C 301.804688 151.453125 302.210938 151.054688 302.511719 150.574219 C 302.816406 150.074219 302.976562 149.496094 302.96875 148.902344 C 303.042969 147.925781 302.5625 146.996094 301.730469 146.496094 C 300.792969 145.953125 299.773438 145.566406 298.722656 145.324219 L 295.664062 144.621094 C 295.28125 144.523438 294.761719 144.363281 294.109375 144.140625 C 293.429688 143.898438 292.78125 143.5625 292.199219 143.136719 C 291.5625 142.664062 291.011719 142.070312 290.609375 141.394531 C 290.136719 140.59375 289.910156 139.667969 289.941406 138.738281 C 289.917969 137.699219 290.152344 136.664062 290.636719 135.730469 C 291.082031 134.890625 291.71875 134.171875 292.5 133.632812 C 293.308594 133.078125 294.207031 132.664062 295.152344 132.417969 C 296.152344 132.148438 297.179688 132.003906 298.214844 132.011719 C 299.714844 131.996094 301.191406 132.3125 302.5625 132.917969 C 303.929688 133.558594 305.03125 134.660156 305.667969 136.023438 L 302.832031 137.890625 Z M 302.824219 137.871094 " fill-opacity="1" fill-rule="nonzero"></path>
  <path fill="#ffffff" d="M 81.492188 125.488281 C 81.441406 125.488281 81.394531 125.480469 81.351562 125.457031 C 81.230469 125.417969 81.140625 125.328125 81.089844 125.21875 C 80.992188 125.015625 81.066406 124.765625 81.269531 124.65625 L 88.878906 120.253906 C 88.136719 120.605469 87.484375 120.90625 86.929688 121.152344 C 84.53125 122.253906 84.484375 122.230469 84.277344 122.15625 C 84.164062 122.121094 84.074219 122.039062 84.019531 121.925781 C 83.929688 121.730469 83.992188 121.496094 84.171875 121.378906 L 89.171875 118.011719 C 89.171875 118.011719 89.113281 117.996094 89.074219 117.988281 L 89.21875 117.574219 L 89.039062 117.175781 L 89.375 117.011719 C 93.53125 114.925781 93.636719 114.964844 93.875 115.054688 C 93.988281 115.09375 94.085938 115.183594 94.136719 115.289062 C 94.226562 115.480469 94.167969 115.714844 93.988281 115.835938 L 88.851562 119.285156 C 91.753906 117.917969 95.503906 116.136719 98.414062 114.730469 C 98.628906 114.628906 98.894531 114.71875 99 114.933594 C 99.101562 115.144531 99.019531 115.390625 98.816406 115.511719 L 88.273438 121.609375 C 92.164062 119.765625 96.964844 117.433594 100.566406 115.65625 C 100.785156 115.550781 101.046875 115.640625 101.152344 115.855469 C 101.253906 116.074219 101.164062 116.335938 100.949219 116.441406 C 100.902344 116.464844 96.230469 118.773438 91.542969 121.023438 C 83.269531 124.992188 81.890625 125.488281 81.484375 125.488281 Z M 81.492188 125.488281 " fill-opacity="1" fill-rule="nonzero"></path>
  <path fill="#ffffff" d="M 81.238281 164.652344 C 81.1875 164.652344 81.140625 164.636719 81.09375 164.613281 C 80.984375 164.578125 80.894531 164.496094 80.847656 164.390625 C 80.757812 164.195312 80.816406 163.953125 81.003906 163.835938 C 83.03125 162.507812 85.769531 160.691406 87.859375 159.261719 C 86.789062 159.777344 85.609375 160.347656 84.589844 160.851562 C 78.832031 163.664062 78.800781 163.65625 78.53125 163.558594 C 78.417969 163.519531 78.328125 163.4375 78.277344 163.324219 C 78.109375 162.972656 78.441406 162.746094 78.5625 162.65625 C 78.679688 162.566406 78.808594 162.492188 79.011719 162.363281 C 79.363281 162.140625 79.894531 161.832031 80.617188 161.398438 C 81.957031 160.601562 83.789062 159.539062 85.714844 158.417969 L 89.9375 155.96875 L 76.59375 162.183594 C 76.378906 162.289062 76.125 162.191406 76.019531 161.976562 C 75.972656 161.863281 75.890625 161.59375 76.265625 161.367188 L 76.5 161.230469 C 76.6875 161.128906 76.96875 160.96875 77.339844 160.765625 C 78.011719 160.390625 78.980469 159.867188 80.300781 159.15625 C 82.144531 158.15625 84.410156 156.933594 86.734375 155.683594 C 82.714844 157.574219 78.34375 159.640625 74.714844 161.367188 C 74.503906 161.464844 74.25 161.382812 74.136719 161.171875 C 74.03125 160.960938 74.105469 160.707031 74.316406 160.585938 L 91.242188 151.085938 C 87.628906 152.808594 83.628906 154.699219 80.359375 156.246094 C 78.101562 157.308594 76.414062 158.082031 75.191406 158.628906 C 72.957031 159.636719 72.890625 159.613281 72.679688 159.539062 C 72.566406 159.5 72.476562 159.417969 72.425781 159.304688 C 72.207031 158.839844 72.652344 158.464844 73.789062 157.746094 C 74.277344 157.4375 74.914062 157.054688 75.703125 156.613281 C 71.097656 158.765625 70.964844 158.71875 70.730469 158.628906 C 70.617188 158.59375 70.519531 158.511719 70.476562 158.398438 C 70.25 157.925781 70.699219 157.566406 72.058594 156.769531 C 72.515625 156.507812 73.070312 156.199219 73.746094 155.839844 C 69.914062 157.519531 69.621094 157.414062 69.417969 157.339844 C 69.289062 157.292969 69.191406 157.203125 69.132812 157.085938 C 69.035156 156.867188 69.117188 156.621094 69.328125 156.507812 C 78.808594 151.773438 91.460938 145.378906 99.351562 141.230469 C 96.285156 142.714844 92.683594 144.484375 89.277344 146.15625 C 84.367188 148.578125 79.28125 151.078125 75.367188 152.929688 C 68.644531 156.117188 68.347656 156.011719 68.054688 155.90625 C 67.933594 155.863281 67.828125 155.773438 67.777344 155.660156 C 67.597656 155.269531 67.972656 155.023438 68.347656 154.773438 C 68.628906 154.59375 69.050781 154.339844 69.613281 154.011719 C 70.640625 153.417969 72.171875 152.570312 74.160156 151.496094 C 77.136719 149.886719 81.179688 147.730469 86.195312 145.101562 C 82.597656 146.832031 79.054688 148.535156 75.964844 149.988281 C 66.539062 154.4375 66.191406 154.308594 65.902344 154.203125 C 65.78125 154.160156 65.683594 154.078125 65.625 153.964844 C 65.519531 153.738281 65.625 153.476562 65.839844 153.371094 C 65.839844 153.371094 65.839844 153.371094 65.847656 153.371094 C 65.878906 153.355469 65.929688 153.328125 65.992188 153.296875 C 66.109375 153.238281 66.285156 153.140625 66.507812 153.027344 C 66.9375 152.800781 67.574219 152.488281 68.441406 152.039062 C 70.101562 151.191406 72.449219 150.003906 75.171875 148.625 C 82.679688 144.816406 94.4375 138.859375 101.886719 134.988281 C 98.464844 136.558594 93.464844 138.898438 86.195312 142.363281 C 75.484375 147.46875 64.910156 152.621094 64.804688 152.675781 C 64.699219 152.726562 64.582031 152.734375 64.46875 152.691406 C 64.355469 152.652344 64.265625 152.570312 64.214844 152.464844 C 63.996094 152 64.503906 151.609375 65.136719 151.175781 C 65.667969 150.808594 66.5 150.3125 67.589844 149.703125 C 69.507812 148.632812 72.359375 147.132812 76.039062 145.265625 C 76.65625 144.957031 77.277344 144.636719 77.921875 144.320312 C 77.546875 144.5 77.1875 144.671875 76.820312 144.851562 C 73.039062 146.667969 69.785156 148.234375 67.386719 149.375 C 63.375 151.289062 63.359375 151.28125 63.117188 151.199219 C 63.003906 151.152344 62.914062 151.070312 62.863281 150.964844 C 62.675781 150.550781 63.097656 150.273438 63.410156 150.078125 C 63.6875 149.898438 64.101562 149.652344 64.664062 149.34375 C 65.683594 148.78125 67.167969 148.003906 69.207031 146.960938 C 73.003906 145.023438 78.101562 142.496094 83.511719 139.828125 C 89.503906 136.863281 95.699219 133.804688 100.519531 131.328125 C 102.574219 130.28125 104.144531 129.453125 105.335938 128.816406 C 104.449219 129.222656 103.386719 129.730469 102.082031 130.355469 C 98.066406 132.28125 92.945312 134.824219 87.53125 137.515625 C 81.507812 140.515625 75.269531 143.613281 70.453125 145.910156 C 62.210938 149.839844 61.761719 149.675781 61.421875 149.5625 C 61.289062 149.515625 61.183594 149.417969 61.125 149.300781 C 60.90625 148.835938 61.453125 148.46875 61.886719 148.175781 C 62.324219 147.882812 62.984375 147.484375 63.851562 146.996094 C 64.144531 146.832031 64.460938 146.660156 64.804688 146.464844 C 60.636719 148.234375 60.253906 148.101562 60.003906 148.011719 C 59.871094 147.964844 59.757812 147.867188 59.699219 147.730469 C 59.59375 147.515625 59.683594 147.261719 59.894531 147.15625 L 79.332031 137.40625 C 74.253906 139.78125 70.078125 141.726562 66.875 143.21875 C 64.429688 144.355469 62.535156 145.234375 61.234375 145.828125 C 60.539062 146.140625 60 146.398438 59.644531 146.554688 C 58.941406 146.871094 58.917969 146.886719 58.730469 146.816406 C 58.617188 146.78125 58.527344 146.699219 58.484375 146.59375 C 58.386719 146.375 58.476562 146.121094 58.6875 146.015625 C 69.484375 140.773438 83.40625 133.949219 93.621094 128.816406 C 91.558594 129.835938 89.421875 130.894531 87.359375 131.921875 C 80.644531 135.253906 73.707031 138.695312 68.1875 141.328125 C 58.691406 145.84375 58.152344 145.65625 57.792969 145.527344 C 57.660156 145.480469 57.546875 145.386719 57.484375 145.25 C 57.261719 144.769531 57.6875 144.363281 59.5625 143.230469 C 60.785156 142.496094 62.625 141.492188 65.007812 140.226562 C 69.019531 138.117188 74.660156 135.265625 81.769531 131.78125 C 86.398438 129.507812 91.0625 127.25 95.0625 125.316406 C 91.183594 127.105469 86.359375 129.402344 80.675781 132.164062 C 74.152344 135.335938 67.6875 138.539062 63.148438 140.800781 L 56.921875 143.921875 C 56.707031 144.027344 56.441406 143.945312 56.339844 143.726562 C 56.234375 143.511719 56.316406 143.246094 56.535156 143.140625 C 56.585938 143.113281 59.015625 141.890625 62.757812 140.023438 L 77.226562 132.769531 L 56.511719 142.453125 C 56.40625 142.496094 56.285156 142.503906 56.171875 142.46875 C 56.0625 142.429688 55.972656 142.347656 55.925781 142.242188 C 55.691406 141.738281 56.160156 141.289062 58.109375 140.171875 C 59.390625 139.4375 61.257812 138.453125 63.824219 137.171875 C 68.570312 134.800781 74.960938 131.773438 81.140625 128.839844 C 86.726562 126.183594 92.015625 123.679688 96.125 121.648438 C 98.902344 120.273438 100.617188 119.375 101.667969 118.78125 C 101.097656 119 100.363281 119.292969 99.402344 119.703125 C 97.265625 120.621094 94.410156 121.933594 90.664062 123.710938 C 83.847656 126.949219 75.449219 131.113281 68.699219 134.449219 C 64.917969 136.324219 61.664062 137.9375 59.269531 139.101562 C 55.265625 141.050781 55.191406 141.027344 54.949219 140.9375 C 54.839844 140.898438 54.75 140.816406 54.695312 140.703125 C 54.492188 140.269531 54.980469 139.941406 55.296875 139.722656 C 55.609375 139.503906 56.113281 139.210938 56.773438 138.835938 C 57.972656 138.167969 59.714844 137.269531 62.097656 136.070312 C 62.984375 135.621094 63.941406 135.148438 64.957031 134.652344 C 64.125 135.035156 63.34375 135.394531 62.609375 135.730469 C 54.890625 139.273438 54.644531 139.175781 54.378906 139.085938 C 54.261719 139.039062 54.171875 138.957031 54.117188 138.84375 C 53.921875 138.425781 54.351562 138.167969 54.988281 137.792969 C 55.429688 137.53125 56.089844 137.164062 57 136.667969 C 58.691406 135.746094 61.054688 134.511719 63.554688 133.191406 C 67.003906 131.375 70.910156 129.320312 73.984375 127.632812 C 75.695312 126.695312 76.878906 126.011719 77.707031 125.515625 C 75.867188 126.28125 72.472656 127.820312 66.207031 130.878906 C 60 133.917969 53.9375 137 53.871094 137.03125 C 53.765625 137.082031 53.644531 137.089844 53.535156 137.050781 C 53.421875 137.015625 53.332031 136.933594 53.277344 136.820312 C 53.074219 136.386719 53.488281 136.136719 54.492188 135.53125 C 55.144531 135.140625 56.082031 134.601562 57.386719 133.886719 C 59.789062 132.558594 63.035156 130.804688 66.179688 129.109375 L 69.417969 127.363281 C 68.164062 127.949219 66.890625 128.554688 65.644531 129.148438 C 62.570312 130.601562 59.382812 132.109375 57.042969 133.203125 C 55.785156 133.796875 54.851562 134.226562 54.207031 134.523438 C 52.972656 135.09375 52.972656 135.09375 52.761719 135.019531 C 52.648438 134.980469 52.566406 134.898438 52.511719 134.792969 C 52.347656 134.441406 52.65625 134.230469 52.933594 134.058594 C 53.097656 133.953125 53.359375 133.796875 53.691406 133.601562 C 54.304688 133.234375 55.214844 132.703125 56.382812 132.019531 C 58.355469 130.871094 61.117188 129.289062 64.582031 127.308594 L 68.714844 124.949219 C 67.109375 125.742188 65.449219 126.558594 63.964844 127.292969 C 61.09375 128.710938 58.378906 130.070312 56.277344 131.074219 C 52.625 132.824219 52.453125 132.761719 52.222656 132.679688 C 52.101562 132.636719 52.003906 132.550781 51.949219 132.441406 C 51.769531 132.035156 52.175781 131.773438 52.609375 131.496094 C 52.941406 131.285156 53.441406 130.984375 54.097656 130.609375 C 55.242188 129.949219 56.914062 129.019531 59.066406 127.84375 C 59.929688 127.371094 60.839844 126.882812 61.761719 126.378906 L 52.019531 130.949219 C 51.914062 131 51.792969 131 51.679688 130.960938 C 51.566406 130.925781 51.476562 130.84375 51.433594 130.738281 C 51.222656 130.292969 51.671875 129.957031 52.429688 129.449219 C 52.984375 129.074219 53.816406 128.5625 54.890625 127.917969 C 56.699219 126.851562 59.25 125.414062 62.457031 123.640625 L 62.96875 123.363281 C 60.808594 124.40625 58.714844 125.425781 57.164062 126.199219 C 55.761719 126.890625 54.539062 127.480469 53.667969 127.902344 C 52.636719 128.402344 52.054688 128.628906 51.914062 128.578125 C 51.800781 128.539062 51.710938 128.457031 51.660156 128.34375 C 51.5625 128.140625 51.636719 127.894531 51.839844 127.773438 L 62.4375 121.828125 C 61.09375 122.464844 59.796875 123.09375 58.679688 123.636719 C 57.035156 124.429688 55.617188 125.105469 54.566406 125.605469 C 53.332031 126.199219 52.644531 126.46875 52.503906 126.417969 C 52.394531 126.378906 52.304688 126.296875 52.25 126.191406 C 52.070312 125.800781 52.410156 125.570312 53.089844 125.113281 C 53.527344 124.820312 54.171875 124.40625 55.011719 123.882812 C 56.414062 122.996094 58.386719 121.804688 60.875 120.3125 C 61.109375 120.175781 61.332031 120.035156 61.574219 119.898438 C 54.882812 123.238281 54.082031 123.550781 53.691406 123.417969 C 53.570312 123.371094 53.472656 123.289062 53.421875 123.175781 C 53.324219 122.960938 53.414062 122.703125 53.625 122.601562 L 53.734375 122.53125 C 53.832031 122.472656 53.976562 122.390625 54.164062 122.277344 C 54.515625 122.050781 55.046875 121.746094 55.671875 121.363281 C 56.570312 120.824219 57.679688 120.15625 58.859375 119.441406 C 55.46875 121.054688 55.324219 121.011719 55.101562 120.925781 C 54.988281 120.890625 54.890625 120.800781 54.839844 120.695312 C 54.75 120.5 54.808594 120.265625 54.988281 120.148438 C 56.128906 119.375 57.492188 118.460938 58.769531 117.597656 C 58.730469 117.597656 58.6875 117.582031 58.648438 117.566406 C 58.535156 117.53125 58.445312 117.449219 58.402344 117.34375 C 58.296875 117.125 58.394531 116.871094 58.609375 116.765625 C 58.632812 116.75 58.65625 116.742188 58.679688 116.734375 C 58.992188 116.605469 61.511719 115.421875 63.050781 114.6875 C 63.15625 114.636719 63.277344 114.628906 63.386719 114.671875 C 63.5 114.710938 63.589844 114.792969 63.636719 114.898438 C 63.726562 115.128906 63.628906 115.390625 63.402344 115.503906 L 63.148438 115.683594 C 62.929688 115.835938 62.617188 116.039062 62.242188 116.308594 C 61.492188 116.816406 60.484375 117.5 59.488281 118.175781 C 59.472656 118.183594 59.464844 118.191406 59.449219 118.203125 C 60.988281 117.46875 62.636719 116.660156 63.847656 116.066406 C 64.730469 115.632812 65.496094 115.257812 66.050781 114.988281 C 66.75 114.648438 67.167969 114.503906 67.304688 114.550781 C 67.414062 114.589844 67.503906 114.671875 67.558594 114.785156 C 67.65625 114.988281 67.574219 115.226562 67.378906 115.339844 L 60.457031 119.515625 C 61.019531 119.238281 61.574219 118.960938 62.089844 118.699219 C 69.097656 115.199219 69.472656 115.085938 69.816406 115.199219 C 69.9375 115.234375 70.027344 115.324219 70.078125 115.4375 C 70.167969 115.640625 70.09375 115.886719 69.898438 116 C 66.449219 118.03125 62.039062 120.65625 58.589844 122.75 C 61.347656 121.421875 64.429688 119.9375 66.957031 118.753906 C 71.636719 116.546875 71.75 116.59375 71.992188 116.683594 C 72.101562 116.71875 72.191406 116.808594 72.246094 116.914062 C 72.34375 117.117188 72.269531 117.363281 72.066406 117.484375 L 64.84375 121.535156 C 72.839844 117.695312 73.535156 117.542969 73.878906 117.65625 C 74 117.703125 74.097656 117.785156 74.152344 117.898438 C 74.25 118.105469 74.164062 118.355469 73.964844 118.46875 C 73.910156 118.496094 68.683594 121.265625 63.402344 124.167969 C 60.914062 125.53125 58.976562 126.621094 57.457031 127.480469 L 75.539062 119.042969 C 75.753906 118.941406 76.011719 119.039062 76.117188 119.253906 C 76.167969 119.367188 76.242188 119.644531 75.859375 119.871094 L 75.621094 120.003906 L 74.734375 120.484375 C 73.972656 120.898438 72.890625 121.476562 71.609375 122.15625 C 69 123.550781 64.699219 125.839844 60.867188 127.917969 C 61.785156 127.46875 62.699219 127.011719 63.574219 126.574219 C 66.613281 125.066406 69.753906 123.507812 72.179688 122.351562 C 76.386719 120.34375 76.601562 120.425781 76.859375 120.515625 C 76.976562 120.550781 77.082031 120.640625 77.136719 120.761719 C 77.234375 120.964844 77.160156 121.210938 76.957031 121.332031 C 72.042969 124.121094 65.789062 127.683594 60.929688 130.480469 C 62.347656 129.808594 63.839844 129.109375 65.277344 128.425781 C 68.511719 126.898438 71.847656 125.316406 74.351562 124.152344 C 75.703125 123.523438 76.699219 123.058594 77.398438 122.734375 C 78.289062 122.328125 78.800781 122.152344 78.9375 122.203125 C 79.046875 122.238281 79.128906 122.324219 79.183594 122.425781 C 79.363281 122.800781 79.003906 123.050781 78.792969 123.191406 C 78.613281 123.320312 78.359375 123.476562 78.003906 123.6875 C 77.375 124.0625 76.460938 124.585938 75.199219 125.277344 C 73.609375 126.164062 71.625 127.242188 69.53125 128.367188 C 79.191406 123.726562 79.714844 123.90625 80.039062 124.015625 C 80.164062 124.0625 80.269531 124.152344 80.332031 124.28125 C 80.519531 124.691406 80.089844 125.03125 79.886719 125.195312 C 79.535156 125.464844 79.167969 125.710938 78.785156 125.945312 C 77.910156 126.492188 76.648438 127.21875 74.921875 128.179688 C 71.773438 129.917969 67.632812 132.101562 63.972656 134.023438 C 63.058594 134.503906 62.144531 134.980469 61.257812 135.453125 C 70.941406 131.039062 89.03125 122.382812 102.199219 116 C 102.304688 115.949219 102.425781 115.941406 102.539062 115.984375 C 102.652344 116.023438 102.742188 116.105469 102.785156 116.210938 C 102.988281 116.644531 102.5 116.980469 102.179688 117.199219 C 101.855469 117.417969 101.351562 117.71875 100.6875 118.085938 C 100.234375 118.339844 99.710938 118.617188 99.097656 118.949219 C 103.117188 117.230469 103.519531 117.363281 103.769531 117.453125 C 103.902344 117.5 104.023438 117.605469 104.082031 117.730469 C 104.316406 118.234375 103.785156 118.648438 102.15625 119.570312 C 101.039062 120.199219 99.394531 121.054688 97.136719 122.179688 C 92.953125 124.265625 87.394531 126.890625 81.515625 129.6875 C 76.257812 132.183594 70.84375 134.75 66.433594 136.917969 L 105.199219 118.84375 C 105.417969 118.746094 105.671875 118.835938 105.777344 119.050781 C 105.882812 119.261719 105.800781 119.523438 105.582031 119.628906 L 102.851562 120.996094 C 106.0625 119.699219 106.421875 119.824219 106.648438 119.898438 C 106.789062 119.945312 106.902344 120.042969 106.964844 120.175781 C 107.0625 120.394531 106.972656 120.648438 106.753906 120.753906 C 106.632812 120.816406 94.859375 126.394531 83.039062 132.191406 C 67.933594 139.601562 61.984375 142.835938 59.691406 144.230469 C 61.085938 143.699219 63.605469 142.585938 68.152344 140.425781 C 73.617188 137.824219 80.429688 134.441406 87.011719 131.171875 C 92.316406 128.539062 97.324219 126.050781 101.097656 124.234375 C 107.457031 121.175781 107.722656 121.273438 108.003906 121.371094 C 108.125 121.414062 108.222656 121.503906 108.285156 121.617188 C 108.476562 122.03125 108.042969 122.300781 107.625 122.5625 C 107.285156 122.773438 106.761719 123.074219 106.085938 123.449219 C 104.832031 124.128906 102.972656 125.105469 100.574219 126.34375 C 98.9375 127.175781 97.039062 128.136719 94.886719 129.222656 C 99.785156 126.917969 104.449219 124.746094 108.296875 122.9375 C 108.515625 122.839844 108.769531 122.929688 108.875 123.140625 C 108.980469 123.351562 108.898438 123.613281 108.679688 123.71875 L 67.363281 144.433594 C 71.128906 142.753906 76.867188 140.082031 85.582031 135.851562 C 97.332031 130.152344 108.890625 124.355469 109.003906 124.300781 C 109.109375 124.25 109.226562 124.242188 109.339844 124.28125 C 109.453125 124.316406 109.542969 124.398438 109.597656 124.511719 C 109.777344 124.917969 109.378906 125.164062 109.085938 125.34375 C 108.847656 125.496094 108.484375 125.699219 108 125.960938 C 107.113281 126.441406 105.816406 127.101562 104.03125 127.992188 C 100.691406 129.664062 96.082031 131.914062 91.191406 134.300781 C 84.792969 137.417969 77.539062 140.96875 71.929688 143.792969 C 68 145.78125 65.585938 147.066406 64.125 147.890625 C 65.429688 147.335938 67.414062 146.433594 70.410156 145.011719 C 75.179688 142.730469 81.277344 139.699219 87.179688 136.765625 C 92.742188 134 98 131.390625 102.066406 129.441406 C 108.949219 126.140625 109.289062 126.253906 109.582031 126.363281 C 109.707031 126.402344 109.804688 126.5 109.867188 126.621094 C 110.074219 127.0625 109.574219 127.40625 109.199219 127.664062 C 108.824219 127.917969 108.285156 128.246094 107.535156 128.667969 C 106.191406 129.433594 104.242188 130.460938 101.585938 131.824219 C 98.714844 133.292969 95.316406 134.996094 91.730469 136.78125 C 93.800781 135.792969 95.8125 134.847656 97.679688 133.96875 C 109.046875 128.621094 109.363281 128.734375 109.65625 128.832031 C 109.777344 128.878906 109.867188 128.960938 109.917969 129.074219 C 110.097656 129.453125 109.722656 129.671875 109.535156 129.777344 C 109.394531 129.859375 109.183594 129.972656 108.898438 130.113281 C 108.375 130.386719 107.609375 130.765625 106.542969 131.292969 C 104.535156 132.28125 101.726562 133.648438 98.472656 135.230469 C 91.957031 138.402344 83.839844 142.339844 77.179688 145.699219 L 75.785156 146.40625 C 79.019531 144.84375 82.648438 143.097656 86.277344 141.371094 C 92.652344 138.328125 97.789062 135.917969 101.535156 134.210938 C 108.734375 130.917969 109.003906 131.023438 109.265625 131.113281 C 109.386719 131.15625 109.484375 131.238281 109.535156 131.351562 C 109.714844 131.726562 109.355469 131.960938 109.160156 132.078125 C 109.003906 132.175781 108.777344 132.3125 108.464844 132.492188 C 107.894531 132.816406 107.03125 133.289062 105.914062 133.878906 C 103.925781 134.945312 101.023438 136.445312 97.273438 138.371094 C 92.421875 140.871094 86.714844 143.765625 81.582031 146.375 C 85.589844 144.453125 89.863281 142.386719 93.800781 140.472656 C 97.648438 138.605469 101.285156 136.84375 103.902344 135.589844 C 108.320312 133.480469 108.378906 133.503906 108.613281 133.585938 C 108.847656 133.667969 108.964844 133.925781 108.882812 134.148438 C 108.847656 134.253906 108.769531 134.335938 108.671875 134.390625 C 97.304688 140.261719 81.710938 148.398438 73.699219 152.765625 C 74.1875 152.53125 74.726562 152.285156 75.3125 152 C 79.167969 150.164062 84.109375 147.730469 88.886719 145.386719 C 93.441406 143.148438 97.738281 141.035156 101.054688 139.453125 C 106.699219 136.761719 106.925781 136.84375 107.1875 136.933594 C 107.308594 136.976562 107.40625 137.058594 107.457031 137.171875 C 107.636719 137.570312 107.234375 137.847656 106.933594 138.050781 C 106.671875 138.230469 106.273438 138.460938 105.753906 138.753906 C 104.796875 139.308594 103.378906 140.089844 101.535156 141.066406 C 98.429688 142.714844 94.078125 144.957031 88.601562 147.761719 C 86.914062 148.625 85.226562 149.480469 83.585938 150.3125 C 85.054688 149.613281 86.675781 148.84375 88.460938 147.980469 C 97.199219 143.773438 105.785156 139.511719 105.875 139.46875 C 106.09375 139.363281 106.355469 139.445312 106.46875 139.664062 C 106.46875 139.664062 106.46875 139.664062 106.46875 139.667969 C 106.664062 140.082031 106.214844 140.425781 106.019531 140.570312 C 105.664062 140.824219 105.296875 141.058594 104.914062 141.265625 C 104.03125 141.777344 102.742188 142.46875 100.964844 143.367188 C 97.679688 145.039062 93.171875 147.222656 88.820312 149.328125 C 86.871094 150.273438 84.90625 151.226562 83.015625 152.148438 L 88.324219 149.59375 C 92.308594 147.671875 96.066406 145.863281 98.953125 144.5 C 103.902344 142.160156 104 142.199219 104.25 142.289062 C 104.359375 142.324219 104.449219 142.40625 104.503906 142.519531 C 104.601562 142.738281 104.511719 142.992188 104.292969 143.097656 C 104.21875 143.136719 96.703125 146.765625 89.128906 150.574219 C 83.5625 153.371094 79.917969 155.277344 77.546875 156.574219 C 82.0625 154.476562 88.796875 151.265625 93.515625 149.023438 C 95.953125 147.859375 98.0625 146.863281 99.597656 146.128906 C 100.414062 145.738281 101.015625 145.460938 101.429688 145.265625 C 102.230469 144.890625 102.261719 144.882812 102.449219 144.949219 C 102.5625 144.988281 102.652344 145.070312 102.695312 145.175781 C 102.792969 145.378906 102.71875 145.625 102.515625 145.746094 L 85.617188 155.230469 C 85.859375 155.121094 86.097656 155.007812 86.339844 154.894531 C 89.847656 153.246094 92.644531 151.933594 94.671875 151.003906 C 98.644531 149.164062 98.667969 149.179688 98.902344 149.253906 C 99.011719 149.292969 99.101562 149.375 99.148438 149.488281 C 99.253906 149.710938 99.15625 149.976562 98.929688 150.074219 C 98.929688 150.074219 98.929688 150.074219 98.921875 150.074219 L 98.765625 150.164062 L 98.171875 150.492188 L 96.050781 151.648438 C 94.265625 152.613281 91.875 153.898438 89.339844 155.261719 L 89.234375 155.324219 L 96.207031 152.066406 C 96.425781 151.960938 96.679688 152.058594 96.785156 152.277344 C 96.949219 152.628906 96.605469 152.890625 96.433594 153.027344 C 96.261719 153.164062 96.042969 153.304688 95.726562 153.5 C 95.171875 153.851562 94.363281 154.347656 93.269531 155 C 91.429688 156.09375 89.097656 157.453125 86.796875 158.789062 C 91.054688 156.726562 91.144531 156.753906 91.402344 156.835938 C 91.511719 156.875 91.609375 156.957031 91.65625 157.070312 C 91.820312 157.421875 91.492188 157.699219 91.136719 157.976562 C 90.882812 158.179688 90.5 158.464844 90 158.808594 C 89.164062 159.394531 88.003906 160.199219 86.535156 161.1875 C 85.957031 161.578125 85.363281 161.96875 84.816406 162.335938 C 84.851562 162.371094 84.882812 162.417969 84.90625 162.460938 C 85.011719 162.679688 84.914062 162.941406 84.695312 163.046875 L 83.0625 163.820312 L 81.929688 164.351562 C 81.6875 164.464844 81.441406 164.554688 81.179688 164.605469 Z M 58.835938 116.726562 C 59.007812 116.726562 59.160156 116.824219 59.226562 116.980469 C 59.144531 116.800781 58.941406 116.703125 58.746094 116.742188 C 58.777344 116.742188 58.796875 116.734375 58.828125 116.734375 Z M 58.835938 116.726562 " fill-opacity="1" fill-rule="nonzero"></path>
</svg>
