<?xml version="1.0" encoding="UTF-8"?>
<svg xmlns="http://www.w3.org/2000/svg" width="48" height="48" viewBox="0 0 48 48" fill="none">
  <g clip-path="url(#clip0_4903_38)">
    <path d="M3.75848 33.0738C-1.25283 28.0625 -1.25283 19.9375 3.75848 14.9262L14.9262 3.75848C19.9375 -1.25283 28.0625 -1.25283 33.0738 3.75848L44.2415 14.9262C49.2528 19.9375 49.2528 28.0625 44.2415 33.0738L33.0738 44.2415C28.0625 49.2528 19.9375 49.2528 14.9262 44.2415L3.75848 33.0738Z" fill="url(#paint0_linear_4903_38)"></path>
    <path fill-rule="evenodd" clip-rule="evenodd" d="M29.6498 16.0402L24.0029 21.3975V26.6009L33.8565 17.1714L29.6498 16.0402ZM18.3552 31.9585L24.002 26.6012V21.3978L14.1484 30.8272L18.3552 31.9585Z" fill="url(#paint1_linear_4903_38)"></path>
    <path fill-rule="evenodd" clip-rule="evenodd" d="M13 17.6197L13.0432 16.7885L16.5583 15.6387V28.5056C16.5583 31.4517 18.1741 32.2116 19.4805 30.908L17.2741 33.0271C14.829 35.4689 13 32.789 13 30.7588V17.6197Z" fill="url(#paint2_linear_4903_38)"></path>
    <path fill-rule="evenodd" clip-rule="evenodd" d="M35 30.3808L34.9568 31.2119L31.4417 32.3617V19.4948C31.4417 16.5488 29.8259 15.7888 28.5195 17.0924L30.7259 14.9733C33.171 12.5315 35 15.2115 35 17.2417V30.3808Z" fill="url(#paint3_linear_4903_38)"></path>
    <path fill-rule="evenodd" clip-rule="evenodd" d="M18.7172 15.839L23.9999 21.4714V26.4713L15.8321 18.0979C14.9315 17.1871 13 15.7634 13 17.4278C13 13.1202 16.114 13.2063 18.7172 15.839ZM29.2827 32.1591L24 26.4801V21.4767L32.1678 29.9003C33.0683 30.8111 34.9999 32.2347 34.9999 30.5703C34.9999 34.8779 31.8858 34.7918 29.2827 32.1591Z" fill="white"></path>
  </g>
  <defs>
    <linearGradient id="paint0_linear_4903_38" x1="39" y1="9" x2="11.0465" y2="39.8991" gradientUnits="userSpaceOnUse">
      <stop stop-color="#00F1B7"></stop>
      <stop offset="1" stop-color="#008787"></stop>
    </linearGradient>
    <linearGradient id="paint1_linear_4903_38" x1="15.2938" y1="32.1788" x2="32.5724" y2="15.6717" gradientUnits="userSpaceOnUse">
      <stop stop-color="#8BB0B9"></stop>
      <stop offset="0.25" stop-color="#E3EFF2"></stop>
      <stop offset="0.5" stop-color="#C5DFE6"></stop>
      <stop offset="0.75" stop-color="#E0EFF2"></stop>
      <stop offset="1" stop-color="#8BB0BA"></stop>
    </linearGradient>
    <linearGradient id="paint2_linear_4903_38" x1="16.2402" y1="15.6387" x2="16.2402" y2="34.0004" gradientUnits="userSpaceOnUse">
      <stop stop-color="#CEE4EA"></stop>
      <stop offset="0.782942" stop-color="white"></stop>
      <stop offset="1" stop-color="#D5E7EC"></stop>
    </linearGradient>
    <linearGradient id="paint3_linear_4903_38" x1="31.7598" y1="14" x2="31.7598" y2="32.3617" gradientUnits="userSpaceOnUse">
      <stop stop-color="#E4F1F4"></stop>
      <stop offset="0.229167" stop-color="white"></stop>
      <stop offset="1" stop-color="#CEE4EA"></stop>
    </linearGradient>
    <clipPath id="clip0_4903_38">
      <rect width="48" height="48" fill="white"></rect>
    </clipPath>
  </defs>
</svg>
