<?xml version="1.0" encoding="UTF-8"?>
<svg xmlns="http://www.w3.org/2000/svg" width="48" height="48" viewBox="0 0 48 48" fill="none">
  <g clip-path="url(#clip0_4903_46242)">
    <path d="M3.75848 33.0738C-1.25283 28.0625 -1.25283 19.9375 3.75848 14.9262L14.9262 3.75848C19.9375 -1.25283 28.0625 -1.25283 33.0738 3.75848L44.2415 14.9262C49.2528 19.9375 49.2528 28.0625 44.2415 33.0738L33.0738 44.2415C28.0625 49.2528 19.9375 49.2528 14.9262 44.2415L3.75848 33.0738Z" fill="url(#paint0_linear_4903_46242)"></path>
    <path fill-rule="evenodd" clip-rule="evenodd" d="M31.0746 14.393L33.6146 16.9432L16.5401 34.086L14 31.5357L31.0746 14.393Z" fill="url(#paint1_linear_4903_46242)"></path>
    <path fill-rule="evenodd" clip-rule="evenodd" d="M24.6863 31.3154L28.3418 34.999H16.8611L14.2422 31.3154H24.6863Z" fill="url(#paint2_linear_4903_46242)"></path>
    <path fill-rule="evenodd" clip-rule="evenodd" d="M13 19.5993L16.6751 23.2561V31.239C16.6751 32.8115 18.7863 34.9993 20.2364 34.9993H16.5613C14.9139 34.9993 13 32.9839 13 31.217V19.5993Z" fill="url(#paint3_linear_4903_46242)"></path>
    <path fill-rule="evenodd" clip-rule="evenodd" d="M23.3196 16.6836L19.6641 13H31.1447L33.7637 16.6836H23.3196Z" fill="url(#paint4_linear_4903_46242)"></path>
    <path fill-rule="evenodd" clip-rule="evenodd" d="M35.002 28.4L31.3269 24.7432V16.7603C31.3269 15.1878 29.2157 13 27.7656 13H31.4407C33.0881 13 35.002 15.0154 35.002 16.7823V28.4Z" fill="url(#paint5_linear_4903_46242)"></path>
  </g>
  <defs>
    <linearGradient id="paint0_linear_4903_46242" x1="38.5" y1="9.5" x2="10.5465" y2="40.3991" gradientUnits="userSpaceOnUse">
      <stop stop-color="#0098EE"></stop>
      <stop offset="1" stop-color="#00456C"></stop>
    </linearGradient>
    <linearGradient id="paint1_linear_4903_46242" x1="15.1114" y1="32.2501" x2="35.7375" y2="19.1727" gradientUnits="userSpaceOnUse">
      <stop stop-color="#B4CFD6"></stop>
      <stop offset="0.5" stop-color="#DEECEF"></stop>
      <stop offset="1" stop-color="#B0CED6"></stop>
    </linearGradient>
    <linearGradient id="paint2_linear_4903_46242" x1="14.2717" y1="33.1489" x2="28.0225" y2="33.1489" gradientUnits="userSpaceOnUse">
      <stop stop-color="#CEE4EA"></stop>
      <stop offset="1" stop-color="#E4F1F4"></stop>
    </linearGradient>
    <linearGradient id="paint3_linear_4903_46242" x1="16.6182" y1="19.5993" x2="16.6182" y2="34.9993" gradientUnits="userSpaceOnUse">
      <stop stop-color="white"></stop>
      <stop offset="0.782942" stop-color="white"></stop>
      <stop offset="1" stop-color="#D5E7EC"></stop>
    </linearGradient>
    <linearGradient id="paint4_linear_4903_46242" x1="19.6936" y1="14.8334" x2="33.4443" y2="14.8334" gradientUnits="userSpaceOnUse">
      <stop stop-color="#E4F1F4"></stop>
      <stop offset="1" stop-color="#CEE4EA"></stop>
    </linearGradient>
    <linearGradient id="paint5_linear_4903_46242" x1="31.3838" y1="13" x2="31.3838" y2="28.4" gradientUnits="userSpaceOnUse">
      <stop stop-color="#E4F1F4"></stop>
      <stop offset="0.229167" stop-color="white"></stop>
      <stop offset="1" stop-color="white"></stop>
    </linearGradient>
    <clipPath id="clip0_4903_46242">
      <rect width="48" height="48" fill="white"></rect>
    </clipPath>
  </defs>
</svg>
