<?xml version="1.0" encoding="UTF-8"?>
<svg xmlns="http://www.w3.org/2000/svg" width="48" height="48" viewBox="0 0 48 48" fill="none">
  <g clip-path="url(#clip0_4903_25940)">
    <path d="M3.75848 33.0738C-1.25283 28.0625 -1.25283 19.9375 3.75848 14.9262L14.9262 3.75848C19.9375 -1.25283 28.0625 -1.25283 33.0738 3.75848L44.2415 14.9262C49.2528 19.9375 49.2528 28.0625 44.2415 33.0738L33.0738 44.2415C28.0625 49.2528 19.9375 49.2528 14.9262 44.2415L3.75848 33.0738Z" fill="url(#paint0_linear_4903_25940)"></path>
    <path fill-rule="evenodd" clip-rule="evenodd" d="M35.0027 16.835L30.5469 21.2767V32.5095L35.0027 30.1023V16.835Z" fill="url(#paint1_linear_4903_25940)"></path>
    <path fill-rule="evenodd" clip-rule="evenodd" d="M18.0652 35.0014L14.8281 30.5451H30.863C32.592 30.5451 34.9975 28.2146 34.9975 26.6139V31.0702C34.9975 32.8887 32.7815 35.0014 30.8389 35.0014H18.0652Z" fill="url(#paint2_linear_4903_25940)"></path>
    <path fill-rule="evenodd" clip-rule="evenodd" d="M13 18.0668L17.4563 14.8297V30.8647C17.4563 32.5936 19.7868 34.9991 21.3875 34.9991H16.9313C15.1128 34.9991 13 32.7832 13 30.8405V18.0668Z" fill="url(#paint3_linear_4903_25940)"></path>
    <path fill-rule="evenodd" clip-rule="evenodd" d="M30.3675 13L25.9116 17.4559H17.1344C15.4055 17.4559 13 19.7864 13 21.3871V16.9313C13 15.1128 15.216 13 17.1586 13H30.3675Z" fill="url(#paint4_linear_4903_25940)"></path>
  </g>
  <defs>
    <linearGradient id="paint0_linear_4903_25940" x1="39" y1="9" x2="11.0465" y2="39.8991" gradientUnits="userSpaceOnUse">
      <stop stop-color="#00F1B7"></stop>
      <stop offset="1" stop-color="#008787"></stop>
    </linearGradient>
    <linearGradient id="paint1_linear_4903_25940" x1="32.7748" y1="16.835" x2="32.7748" y2="32.5095" gradientUnits="userSpaceOnUse">
      <stop stop-color="#E2EEF1"></stop>
      <stop offset="1" stop-color="#B8D1D8"></stop>
    </linearGradient>
    <linearGradient id="paint2_linear_4903_25940" x1="16.661" y1="31.3333" x2="34.9943" y2="31.3333" gradientUnits="userSpaceOnUse">
      <stop stop-color="#C5DBE1"></stop>
      <stop offset="1" stop-color="#EBF4F7"></stop>
    </linearGradient>
    <linearGradient id="paint3_linear_4903_25940" x1="15.2885" y1="35" x2="15.2885" y2="15.75" gradientUnits="userSpaceOnUse">
      <stop stop-color="#F1F8FA"></stop>
      <stop offset="1" stop-color="#C7DEE4"></stop>
    </linearGradient>
    <linearGradient id="paint4_linear_4903_25940" x1="30.3648" y1="19.0941" x2="14.1836" y2="19.0941" gradientUnits="userSpaceOnUse">
      <stop stop-color="white"></stop>
      <stop offset="0.588542" stop-color="#F1F7F9"></stop>
      <stop offset="1" stop-color="#E5EFF1"></stop>
    </linearGradient>
    <clipPath id="clip0_4903_25940">
      <rect width="48" height="48" fill="white"></rect>
    </clipPath>
  </defs>
</svg>
