<?xml version="1.0" encoding="UTF-8"?>
<svg xmlns="http://www.w3.org/2000/svg" xmlns:xlink="http://www.w3.org/1999/xlink" width="480" zoomAndPan="magnify" viewBox="0 0 360 269.999989" height="360" preserveAspectRatio="xMidYMid meet" version="1.0">
  <path fill="#ffffff" d="M 91.851562 159.695312 L 91.851562 170.550781 C 82.328125 172.046875 74.28125 166.554688 72.480469 157.535156 C 72.273438 156.484375 71.929688 155.457031 71.648438 154.417969 L 71.648438 98.457031 C 75.355469 98.1875 79.074219 97.746094 82.773438 97.824219 C 83.40625 97.835938 84.496094 100.140625 84.507812 101.386719 C 84.625 117.589844 84.578125 133.789062 84.578125 149.996094 C 84.578125 157.425781 84.734375 157.632812 91.851562 159.691406 Z M 91.851562 159.695312 " fill-opacity="1" fill-rule="nonzero"></path>
  <path fill="#ffffff" d="M 232.050781 167.113281 C 231.695312 172.171875 226.011719 168.582031 222.882812 169.460938 C 220.738281 170.066406 219.550781 168.9375 219.605469 166.472656 C 219.71875 160.546875 219.648438 154.613281 219.644531 148.675781 C 219.644531 145.769531 219.707031 142.859375 219.585938 139.957031 C 219.367188 134.921875 216.65625 131.890625 211.96875 131.25 C 207.40625 130.625 203.175781 133.226562 201.84375 137.742188 C 201.316406 139.5625 201.210938 141.558594 201.199219 143.472656 C 201.128906 151.09375 201.101562 158.730469 201.199219 166.351562 C 201.230469 168.667969 200.496094 169.628906 198.0625 169.570312 C 186.117188 169.292969 188.492188 171.253906 188.285156 160.234375 C 188.171875 153.941406 188.320312 147.640625 188.25 141.351562 C 188.183594 134.8125 185.015625 131.246094 179.40625 131.160156 C 173.878906 131.089844 169.875 135.089844 169.746094 141.273438 C 169.585938 149.378906 169.554688 157.503906 169.765625 165.609375 C 169.855469 168.875 168.765625 169.71875 165.597656 169.667969 C 156.667969 169.519531 156.667969 169.652344 156.667969 160.949219 C 156.667969 148.835938 156.75 136.738281 156.601562 124.628906 C 156.5625 121.738281 157.5 120.597656 160.359375 120.886719 C 161.441406 120.996094 162.546875 120.902344 163.648438 120.902344 C 167.078125 120.90625 168.980469 122.644531 169.355469 126.113281 C 178.980469 116.378906 192.734375 117.933594 198.855469 127.398438 C 204.167969 120.0625 211.453125 118.195312 219.863281 120.222656 C 226.742188 121.882812 231.246094 126.535156 231.710938 133.382812 C 232.457031 144.597656 232.839844 155.914062 232.066406 167.097656 Z M 232.050781 167.113281 " fill-opacity="1" fill-rule="nonzero"></path>
  <path fill="#ffffff" d="M 265.59375 109.324219 C 250.597656 109.234375 239.859375 119.863281 239.757812 134.882812 C 239.652344 149.757812 250.546875 160.824219 265.316406 160.84375 C 279.890625 160.863281 290.886719 149.976562 291.054688 135.355469 C 291.226562 120.476562 280.40625 109.40625 265.59375 109.332031 Z M 265.3125 149.230469 C 258.070312 149.183594 252.667969 143.214844 252.585938 135.144531 C 252.496094 126.890625 257.921875 120.875 265.433594 120.902344 C 272.785156 120.933594 278.074219 126.765625 278.128906 134.902344 C 278.171875 143.175781 272.71875 149.269531 265.316406 149.222656 Z M 265.3125 149.230469 " fill-opacity="1" fill-rule="nonzero"></path>
  <path fill="#ffffff" d="M 146.078125 165.253906 C 146.121094 168.492188 145.328125 170.125 141.816406 169.601562 C 140.980469 169.480469 140.113281 169.601562 139.257812 169.582031 C 133.261719 169.402344 134.308594 170.550781 133.152344 164 C 130.003906 168.09375 126.148438 169.945312 121.695312 170.730469 C 112.132812 172.421875 103.925781 167.058594 102.667969 157.269531 C 101.667969 149.507812 101.96875 141.582031 101.761719 133.730469 C 101.671875 130.335938 101.570312 126.929688 101.875 123.566406 C 101.957031 122.609375 103.449219 121.773438 104.300781 120.894531 C 104.359375 120.835938 104.53125 120.886719 104.660156 120.882812 C 111.300781 120.398438 114.617188 123.441406 114.617188 130.007812 C 114.617188 136.425781 114.558594 142.835938 114.652344 149.253906 C 114.734375 155.6875 117.714844 159.058594 123.246094 159.230469 C 128.90625 159.398438 132.859375 155.632812 133.027344 149.339844 C 133.25 141.355469 133.261719 133.355469 133.027344 125.371094 C 132.925781 121.902344 133.933594 120.757812 137.507812 120.84375 C 146.019531 121.050781 146.019531 120.882812 146.019531 129.300781 C 146.019531 141.300781 145.921875 153.28125 146.082031 165.265625 Z M 146.078125 165.253906 " fill-opacity="1" fill-rule="nonzero"></path>
</svg>
